<svg width="40" height="40" viewBox="0 0 40 40" fill="none" xmlns="http://www.w3.org/2000/svg">
  <!-- Calculator with Measuring Tape Icon - Light Mode Version -->
  <defs>
    <linearGradient id="calcGradLight" x1="0%" y1="0%" x2="100%" y2="100%">
      <stop offset="0%" style="stop-color:#3B82F6"/>
      <stop offset="100%" style="stop-color:#1D4ED8"/>
    </linearGradient>
    <linearGradient id="tapeGradLight" x1="0%" y1="0%" x2="100%" y2="100%">
      <stop offset="0%" style="stop-color:#F59E0B"/>
      <stop offset="100%" style="stop-color:#D97706"/>
    </linearGradient>
    <!-- Subtle shadow for light backgrounds -->
    <filter id="shadow" x="-20%" y="-20%" width="140%" height="140%">
      <feDropShadow dx="0" dy="1" stdDeviation="2" flood-color="#000000" flood-opacity="0.1"/>
    </filter>
  </defs>
  
  <!-- Calculator body with shadow -->
  <rect x="10" y="5" width="20" height="25" rx="2.5" fill="url(#calcGradLight)" filter="url(#shadow)"/>
  
  <!-- Calculator screen with more contrast -->
  <rect x="12.5" y="7.5" width="15" height="5" rx="1.25" fill="white" opacity="0.95"/>
  
  <!-- Calculator buttons - better visibility -->
  <circle cx="14.5" cy="16.25" r="1.5" fill="white" opacity="0.8"/>
  <circle cx="20" cy="16.25" r="1.5" fill="white" opacity="0.8"/>
  <circle cx="25.5" cy="16.25" r="1.5" fill="white" opacity="0.8"/>
  
  <circle cx="14.5" cy="20.5" r="1.5" fill="white" opacity="0.8"/>
  <circle cx="20" cy="20.5" r="1.5" fill="white" opacity="0.8"/>
  <circle cx="25.5" cy="20.5" r="1.5" fill="white" opacity="0.8"/>
  
  <circle cx="14.5" cy="24.75" r="1.5" fill="white" opacity="0.8"/>
  <circle cx="20" cy="24.75" r="1.5" fill="white" opacity="0.8"/>
  <circle cx="25.5" cy="24.75" r="1.5" fill="white" opacity="0.8"/>
  
  <!-- Enhanced measuring tape -->
  <path d="M2.5 20 Q5 17.5 10 20 T17.5 20" stroke="url(#tapeGradLight)" stroke-width="2.5" fill="none"/>
  <path d="M17.5 20 Q22.5 22.5 27.5 20 T37.5 20" stroke="url(#tapeGradLight)" stroke-width="2.5" fill="none"/>
  
  <!-- Enhanced tape markings -->
  <line x1="7.5" y1="18.5" x2="7.5" y2="21.5" stroke="url(#tapeGradLight)" stroke-width="1.25"/>
  <line x1="12.5" y1="18.5" x2="12.5" y2="21.5" stroke="url(#tapeGradLight)" stroke-width="1.25"/>
  <line x1="22.5" y1="18.5" x2="22.5" y2="21.5" stroke="url(#tapeGradLight)" stroke-width="1.25"/>
  <line x1="27.5" y1="18.5" x2="27.5" y2="21.5" stroke="url(#tapeGradLight)" stroke-width="1.25"/>
  <line x1="32.5" y1="18.5" x2="32.5" y2="21.5" stroke="url(#tapeGradLight)" stroke-width="1.25"/>
</svg>